# xmcd
#
# Track frame offsets: 
#        150
#        11100
#        24432
#        36675
#        52635
#        65065
#        77937
#        90400
#        104132
#        117175
#        127722
#        140545
#
# Disc length: 2001 seconds
#
# Revision: 2
# Processed by: cddbd v1.5PL3 Copyright (c) Steve Scherf et al.
# Submitted via: ExactAudioCopy v0.95a5
#
DISCID=9f07cf0c
DTITLE=Del McCoury Band, The - Blue Side Of Town
DYEAR=1992
DGENRE=Bluegrass
TTITLE0=Beauty Of My Dreams
TTITLE1=Queen Anne's Lace
TTITLE2=If You Need A Fool
TTITLE3=Old Memories Mean Nothing To Me
TTITLE4=Try Me One More Time
TTITLE5=Before The Fire Comes Down
TTITLE6=The Blue Side Of Town
TTITLE7=Seasons Of My Heart
TTITLE8=That's Alright Mama
TTITLE9=Make Room For The Blues
TTITLE10=High On A Mountain
TTITLE11=I Believe
EXTD=
EXTT0=
EXTT1=
EXTT2=
EXTT3=
EXTT4=
EXTT5=
EXTT6=
EXTT7=
EXTT8=
EXTT9=
EXTT10=
EXTT11=
PLAYORDER=
